<mxfile host="app.diagrams.net" modified="2024-03-12T11:13:14.126Z" agent="Mozilla/5.0 (Windows NT 10.0; Win64; x64) AppleWebKit/537.36 (KHTML, like Gecko) Chrome/122.0.0.0 Safari/537.36" version="24.0.5" etag="BZy567sMtGMGmLOVaMrp" type="github">
  <diagram name="Page-1" id="PqjXG2Wf0K13415lu5yB">
    <mxGraphModel>
      <root>
        <mxCell id="0" />
        <mxCell id="1" parent="0" />
      </root>
    </mxGraphModel>
  </diagram>
</mxfile>
